<?xml version="1.0" encoding="UTF-8" standalone="no"?>
<svg
   xmlns:dc="http://purl.org/dc/elements/1.1/"
   xmlns:cc="http://creativecommons.org/ns#"
   xmlns:rdf="http://www.w3.org/1999/02/22-rdf-syntax-ns#"
   xmlns:svg="http://www.w3.org/2000/svg"
   xmlns="http://www.w3.org/2000/svg"
   width="112.67734mm"
   height="21.447525mm"
   viewBox="0 0 112.67734 21.447525"
   version="1.1"
   id="svg1521">
  <defs
     id="defs1515" />
  <metadata
     id="metadata1518">
    <rdf:RDF>
      <cc:Work
         rdf:about="">
        <dc:format>image/svg+xml</dc:format>
        <dc:type
           rdf:resource="http://purl.org/dc/dcmitype/StillImage" />
        <dc:title></dc:title>
      </cc:Work>
    </rdf:RDF>
  </metadata>
  <g
     id="layer1"
     transform="translate(-39.667285,-73.186952)">
    <path
       d="m 69.091183,83.286099 a 5.300609,5.300609 0 0 0 0.0784,-0.901284 5.6167125,5.6167125 0 0 0 -7.651785,-5.138634 9.2270829,9.2270829 0 0 0 -7.586481,-3.986568 c -4.963613,0 -9.031155,3.918636 -9.125202,8.798648 a 5.5357272,5.5357272 0 0 0 0.522488,11.055783 h 22.759441 a 4.9636062,4.9636062 0 0 0 1.005778,-9.827945 z"
       id="path4-3"
       style="fill:#c83737;stroke-width:0.261242" />
    <path
       style="color:#000000;font-style:normal;font-variant:normal;font-weight:normal;font-stretch:normal;font-size:medium;line-height:normal;font-family:sans-serif;font-variant-ligatures:normal;font-variant-position:normal;font-variant-caps:normal;font-variant-numeric:normal;font-variant-alternates:normal;font-feature-settings:normal;text-indent:0;text-align:start;text-decoration:none;text-decoration-line:none;text-decoration-style:solid;text-decoration-color:#000000;letter-spacing:normal;word-spacing:normal;text-transform:none;writing-mode:lr-tb;direction:ltr;text-orientation:mixed;dominant-baseline:auto;baseline-shift:baseline;text-anchor:start;white-space:normal;shape-padding:0;clip-rule:nonzero;display:inline;overflow:visible;visibility:visible;isolation:auto;mix-blend-mode:normal;color-interpolation:sRGB;color-interpolation-filters:linearRGB;solid-color:#000000;solid-opacity:1;vector-effect:none;fill:#f2f2f2;fill-opacity:1;fill-rule:evenodd;stroke:none;stroke-width:1.37775;stroke-linecap:round;stroke-linejoin:round;stroke-miterlimit:4;stroke-dasharray:none;stroke-dashoffset:0;stroke-opacity:1;color-rendering:auto;image-rendering:auto;shape-rendering:auto;text-rendering:auto;enable-background:accumulate"
       id="path4559-6"
       d="m 54.517241,75.438607 a 0.68894289,0.68894289 0 0 0 -0.679609,0.579924 l -2.080247,6.920358 h -4.622633 a 0.6899645,0.6899645 0 1 0 0,1.379924 h 5.136541 a 0.68894289,0.68894289 0 0 0 0.660187,-0.494487 l 1.589642,-5.287995 1.590934,5.287995 2.248535,7.482174 0.003,0.0079 a 0.68957812,0.68957812 0 0 0 0.01294,0.03881 0.68957812,0.68957812 0 0 0 0.01422,0.03752 0.68957812,0.68957812 0 0 0 0.0311,0.06211 0.68957812,0.68957812 0 0 0 0.02972,0.04789 0.68957812,0.68957812 0 0 0 0.02459,0.03505 0.68957812,0.68957812 0 0 0 0.02074,0.02577 0.68957812,0.68957812 0 0 0 0.02459,0.02735 0.68957812,0.68957812 0 0 0 0.01945,0.02004 0.68957812,0.68957812 0 0 0 0.02459,0.02251 0.68957812,0.68957812 0 0 0 0.03367,0.02854 0.68957812,0.68957812 0 0 0 0.05312,0.03752 0.68957812,0.68957812 0 0 0 0.02202,0.01254 0.68957812,0.68957812 0 0 0 0.03624,0.02004 0.68957812,0.68957812 0 0 0 0.0311,0.01501 0.68957812,0.68957812 0 0 0 0.03367,0.01501 0.68957812,0.68957812 0 0 0 0.004,9.73e-4 0.68957812,0.68957812 0 0 0 0.05431,0.01758 0.68957812,0.68957812 0 0 0 0.06734,0.01501 0.68957812,0.68957812 0 0 0 0.06734,0.01007 0.68957812,0.68957812 0 0 0 9.74e-4,0 0.68957812,0.68957812 0 0 0 0.05697,0.0019 0.68957812,0.68957812 0 0 0 0.01422,0 0.68957812,0.68957812 0 0 0 0.05569,-0.0049 0.68957812,0.68957812 0 0 0 0.01037,-9.73e-4 0.68957812,0.68957812 0 0 0 0.01165,-9.74e-4 0.68957812,0.68957812 0 0 0 0.05569,-0.01007 0.68957812,0.68957812 0 0 0 0.01165,-0.0019 0.68957812,0.68957812 0 0 0 0.05569,-0.01501 0.68957812,0.68957812 0 0 0 0.01037,-0.0049 0.68957812,0.68957812 0 0 0 0.05312,-0.02004 0.68957812,0.68957812 0 0 0 0.01165,-0.0049 0.68957812,0.68957812 0 0 0 0.05055,-0.02735 0.68957812,0.68957812 0 0 0 0.0311,-0.02004 0.68957812,0.68957812 0 0 0 0.03624,-0.02508 0.68957812,0.68957812 0 0 0 0.04404,-0.03505 0.68957812,0.68957812 0 0 0 0.0089,-0.0079 0.68957812,0.68957812 0 0 0 0.04137,-0.04137 0.68957812,0.68957812 0 0 0 0.0079,-0.0079 0.68957812,0.68957812 0 0 0 0.01422,-0.01758 0.68957812,0.68957812 0 0 0 0.02853,-0.03633 0.68957812,0.68957812 0 0 0 0.03239,-0.0466 0.68957812,0.68957812 0 0 0 0.0069,-0.01007 0.68957812,0.68957812 0 0 0 0.02597,-0.05065 0.68957812,0.68957812 0 0 0 0.0049,-0.01 0.68957812,0.68957812 0 0 0 0.02202,-0.05312 0.68957812,0.68957812 0 0 0 0.004,-0.01254 0.68957812,0.68957812 0 0 0 0.0089,-0.02735 0.68957812,0.68957812 0 0 0 0.0079,-0.02735 l 2.095778,-6.968247 h 4.623927 a 0.6899645,0.6899645 0 1 0 0,-1.379923 h -5.137947 a 0.68894289,0.68894289 0 0 0 -0.660187,0.489323 l -1.589642,5.293188 -1.583163,-5.266006 a 0.68958156,0.68958156 0 0 0 -0.0079,-0.02735 l -2.230594,-7.421154 a 0.68894289,0.68894289 0 0 0 -0.295145,-0.449196 0.68894289,0.68894289 0 0 0 -0.0069,-0.0049 0.68894289,0.68894289 0 0 0 -0.05174,-0.0311 0.68894289,0.68894289 0 0 0 -0.0079,-0.0049 0.68894289,0.68894289 0 0 0 -0.0049,-0.003 0.68894289,0.68894289 0 0 0 -0.318429,-0.07761 z" />
    <text
       xml:space="preserve"
       style="font-style:normal;font-variant:normal;font-weight:normal;font-stretch:normal;font-size:18.7936px;line-height:1.25;font-family:'Myriad Pro';-inkscape-font-specification:'Myriad Pro';letter-spacing:0px;word-spacing:0px;fill:#333333;fill-opacity:1;stroke:none;stroke-width:0.46984"
       x="71.516212"
       y="93.725945"
       id="text1395-7"
       transform="scale(1.0900518,0.91738759)"><tspan
         id="tspan1393-5"
         x="71.516212"
         y="93.725945"
         style="font-style:normal;font-variant:normal;font-weight:bold;font-stretch:normal;font-family:'XO Tahion';-inkscape-font-specification:'XO Tahion Bold';fill:#333333;stroke-width:0.46984">MONIK</tspan></text>
    <text
       xml:space="preserve"
       style="font-style:normal;font-weight:normal;font-size:7.48467px;line-height:1.25;font-family:sans-serif;fill:#000000;fill-opacity:1;stroke:none;stroke-width:0.187117"
       x="78.064384"
       y="93.055679"
       id="text1497"><tspan
         id="tspan1495"
         x="78.064384"
         y="93.055679"
         style="font-style:normal;font-variant:normal;font-weight:normal;font-stretch:normal;font-family:'XO Oriel Condensed';-inkscape-font-specification:'XO Oriel Condensed, ';stroke-width:0.187117">Simple Site Monitoring Tool</tspan></text>
  </g>
</svg>
