<?xml version="1.0" encoding="UTF-8" standalone="no"?>
<svg
   xmlns:dc="http://purl.org/dc/elements/1.1/"
   xmlns:cc="http://creativecommons.org/ns#"
   xmlns:rdf="http://www.w3.org/1999/02/22-rdf-syntax-ns#"
   xmlns:svg="http://www.w3.org/2000/svg"
   xmlns="http://www.w3.org/2000/svg"
   width="33.829762mm"
   height="20.109787mm"
   viewBox="0 0 33.829762 20.109787"
   version="1.1"
   id="svg878">
  <defs
     id="defs872" />
  <metadata
     id="metadata875">
    <rdf:RDF>
      <cc:Work
         rdf:about="">
        <dc:format>image/svg+xml</dc:format>
        <dc:type
           rdf:resource="http://purl.org/dc/dcmitype/StillImage" />
        <dc:title></dc:title>
      </cc:Work>
    </rdf:RDF>
  </metadata>
  <g
     id="layer1"
     transform="translate(-45.829167,-94.266537)">
    <path
       d="m 75.62936,104.42125 a 5.3683958,5.3683958 0 0 0 0.0794,-0.91281 5.6885417,5.6885417 0 0 0 -7.74964,-5.204353 9.3450833,9.3450833 0 0 0 -7.6835,-4.03755 c -5.02709,0 -9.14665,3.96875 -9.2419,8.911173 a 5.6065208,5.6065208 0 0 0 0.52917,11.19717 h 23.0505 a 5.0270833,5.0270833 0 0 0 1.01864,-9.95363 z"
       id="path4-3"
       style="fill:#c83737;stroke-width:0.264583" />
    <path
       style="color:#000000;font-style:normal;font-variant:normal;font-weight:normal;font-stretch:normal;font-size:medium;line-height:normal;font-family:sans-serif;font-variant-ligatures:normal;font-variant-position:normal;font-variant-caps:normal;font-variant-numeric:normal;font-variant-alternates:normal;font-feature-settings:normal;text-indent:0;text-align:start;text-decoration:none;text-decoration-line:none;text-decoration-style:solid;text-decoration-color:#000000;letter-spacing:normal;word-spacing:normal;text-transform:none;writing-mode:lr-tb;direction:ltr;text-orientation:mixed;dominant-baseline:auto;baseline-shift:baseline;text-anchor:start;white-space:normal;shape-padding:0;clip-rule:nonzero;display:inline;overflow:visible;visibility:visible;isolation:auto;mix-blend-mode:normal;color-interpolation:sRGB;color-interpolation-filters:linearRGB;solid-color:#000000;solid-opacity:1;vector-effect:none;fill:#f2f2f2;fill-opacity:1;fill-rule:evenodd;stroke:none;stroke-width:1.39537;stroke-linecap:round;stroke-linejoin:round;stroke-miterlimit:4;stroke-dasharray:none;stroke-dashoffset:0;stroke-opacity:1;color-rendering:auto;image-rendering:auto;shape-rendering:auto;text-rendering:auto;enable-background:accumulate"
       id="path4559-6"
       d="m 60.86904,96.473397 a 0.69775345,0.69775345 0 0 0 -0.6883,0.58734 l -2.10685,7.008863 h -4.68175 a 0.69878813,0.69878813 0 1 0 0,1.39757 h 5.20223 a 0.69775345,0.69775345 0 0 0 0.66863,-0.50081 l 1.60997,-5.355623 1.61128,5.355623 2.27729,7.57786 0.003,0.008 a 0.69839679,0.69839679 0 0 0 0.0131,0.0393 0.69839679,0.69839679 0 0 0 0.0144,0.038 0.69839679,0.69839679 0 0 0 0.0315,0.0629 0.69839679,0.69839679 0 0 0 0.0301,0.0485 0.69839679,0.69839679 0 0 0 0.0249,0.0355 0.69839679,0.69839679 0 0 0 0.021,0.0261 0.69839679,0.69839679 0 0 0 0.0249,0.0277 0.69839679,0.69839679 0 0 0 0.0197,0.0203 0.69839679,0.69839679 0 0 0 0.0249,0.0228 0.69839679,0.69839679 0 0 0 0.0341,0.0289 0.69839679,0.69839679 0 0 0 0.0538,0.038 0.69839679,0.69839679 0 0 0 0.0223,0.0127 0.69839679,0.69839679 0 0 0 0.0367,0.0203 0.69839679,0.69839679 0 0 0 0.0315,0.0152 0.69839679,0.69839679 0 0 0 0.0341,0.0152 0.69839679,0.69839679 0 0 0 0.004,0.001 0.69839679,0.69839679 0 0 0 0.055,0.0178 0.69839679,0.69839679 0 0 0 0.0682,0.0152 0.69839679,0.69839679 0 0 0 0.0682,0.0102 0.69839679,0.69839679 0 0 0 10e-4,0 0.69839679,0.69839679 0 0 0 0.0577,0.002 0.69839679,0.69839679 0 0 0 0.0144,0 0.69839679,0.69839679 0 0 0 0.0564,-0.005 0.69839679,0.69839679 0 0 0 0.0105,-0.001 0.69839679,0.69839679 0 0 0 0.0118,-10e-4 0.69839679,0.69839679 0 0 0 0.0564,-0.0102 0.69839679,0.69839679 0 0 0 0.0118,-0.002 0.69839679,0.69839679 0 0 0 0.0564,-0.0152 0.69839679,0.69839679 0 0 0 0.0105,-0.005 0.69839679,0.69839679 0 0 0 0.0538,-0.0203 0.69839679,0.69839679 0 0 0 0.0118,-0.005 0.69839679,0.69839679 0 0 0 0.0512,-0.0277 0.69839679,0.69839679 0 0 0 0.0315,-0.0203 0.69839679,0.69839679 0 0 0 0.0367,-0.0254 0.69839679,0.69839679 0 0 0 0.0446,-0.0355 0.69839679,0.69839679 0 0 0 0.009,-0.008 0.69839679,0.69839679 0 0 0 0.0419,-0.0419 0.69839679,0.69839679 0 0 0 0.008,-0.008 0.69839679,0.69839679 0 0 0 0.0144,-0.0178 0.69839679,0.69839679 0 0 0 0.0289,-0.0368 0.69839679,0.69839679 0 0 0 0.0328,-0.0472 0.69839679,0.69839679 0 0 0 0.007,-0.0102 0.69839679,0.69839679 0 0 0 0.0263,-0.0513 0.69839679,0.69839679 0 0 0 0.005,-0.0101 0.69839679,0.69839679 0 0 0 0.0223,-0.0538 0.69839679,0.69839679 0 0 0 0.004,-0.0127 0.69839679,0.69839679 0 0 0 0.009,-0.0277 0.69839679,0.69839679 0 0 0 0.008,-0.0277 l 2.12258,-7.05736 h 4.68306 a 0.69878813,0.69878813 0 1 0 0,-1.39757 h -5.2035 a 0.69775345,0.69775345 0 0 0 -0.66863,0.49558 l -1.60997,5.36088 -1.60341,-5.33335 a 0.69840028,0.69840028 0 0 0 -0.008,-0.0277 l -2.25912,-7.516063 a 0.69775345,0.69775345 0 0 0 -0.29892,-0.45494 0.69775345,0.69775345 0 0 0 -0.007,-0.005 0.69775345,0.69775345 0 0 0 -0.0524,-0.0315 0.69775345,0.69775345 0 0 0 -0.008,-0.005 0.69775345,0.69775345 0 0 0 -0.005,-0.003 0.69775345,0.69775345 0 0 0 -0.3225,-0.0786 z" />
  </g>
</svg>
